# xmcd
#
# Track frame offsets:
#	150
#	6078
#	16924
#	28420
#	39677
#	51696
#	62105
#	69077
#	75820
#	82630
#	92355
#
# Disc length: 1339 seconds
#
# Revision: 1
# Processed by: cddbd v1.4PL0 Copyright (c) Steve Scherf et al.
# Submitted via: audiograbber 1.80
#
DISCID=7705390b
DTITLE=Uncle Kracker - Double Wide
DYEAR=1900
DGENRE=
TTITLE0=Intro
TTITLE1=Better Days
TTITLE2=What 'Chu Lookin' At
TTITLE3=Follow Me
TTITLE4=Heaven
TTITLE5=Steaks 'N Shrimp
TTITLE6=Who's Your Uncle
TTITLE7=Whiskey and Water
TTITLE8=Yeah, Yeah, Yeah
TTITLE9=Aces and 8's
TTITLE10=You Can't Take Me
EXTD=
EXTT0=
EXTT1=
EXTT2=
EXTT3=
EXTT4=
EXTT5=
EXTT6=
EXTT7=
EXTT8=
EXTT9=
EXTT10=
PLAYORDER=
